<?xml version="1.0" encoding="UTF-8"?>
<svg version="1.1" xmlns="http://www.w3.org/2000/svg" width="32" height="32">
<path d="M0 0 C0.99 0.33 1.98 0.66 3 1 C3 1.66 3 2.32 3 3 C6.3 3.33 9.6 3.66 13 4 C13.103125 5.03125 13.20625 6.0625 13.3125 7.125 C13.80625862 11.00277133 13.80625862 11.00277133 15.625 14.1875 C17 17 17 17 16.8125 19.3125 C16 21 16 21 14 22 C10.58915179 22.2965955 8.62012782 22.35902137 5.625 20.625 C5.08875 20.08875 4.5525 19.5525 4 19 C4 18.34 4 17.68 4 17 C4.66 17 5.32 17 6 17 C6.99 13.7 7.98 10.4 9 7 C7.35 6.34 5.7 5.68 4 5 C3.9730499 7.93756119 3.95318526 10.87487555 3.9375 13.8125 C3.92912109 14.64587891 3.92074219 15.47925781 3.91210938 16.33789062 C3.90888672 17.14033203 3.90566406 17.94277344 3.90234375 18.76953125 C3.89710693 19.50792236 3.89187012 20.24631348 3.88647461 21.00708008 C3.92476787 23.21057409 3.92476787 23.21057409 5 26 C6.32 26 7.64 26 9 26 C9 26.99 9 27.98 9 29 C3.72 29 -1.56 29 -7 29 C-6.67 28.01 -6.34 27.02 -6 26 C-5.01 26 -4.02 26 -3 26 C-3 25.34 -3 24.68 -3 24 C-2.34 24 -1.68 24 -1 24 C-1.33 17.73 -1.66 11.46 -2 5 C-3.65 5.66 -5.3 6.32 -7 7 C-6.01 10.3 -5.02 13.6 -4 17 C-3.34 17 -2.68 17 -2 17 C-3.75 20.875 -3.75 20.875 -6 22 C-10.05142119 22.25860135 -11.54337669 22.30441554 -15 20 C-14.46014556 17.30072779 -13.61198258 15.11079342 -12.5 12.5625 C-11.26078056 9.61935384 -10.47461518 7.13246022 -10 4 C-5.545 3.505 -5.545 3.505 -1 3 C-0.67 2.01 -0.34 1.02 0 0 Z M-9 12 C-9.66 13.65 -10.32 15.3 -11 17 C-9.35 17 -7.7 17 -6 17 C-6.66 15.35 -7.32 13.7 -8 12 C-8.33 12 -8.66 12 -9 12 Z M10 12 C9.67 13.65 9.34 15.3 9 17 C10.32 17 11.64 17 13 17 C12.67 15.35 12.34 13.7 12 12 C11.34 12 10.68 12 10 12 Z " fill="#FDFDFD" transform="translate(15,0)"/>
<path d="M0 0 C7.92 0 15.84 0 24 0 C24 0.66 24 1.32 24 2 C16.08 2 8.16 2 0 2 C0 1.34 0 0.68 0 0 Z " fill="#FEFEFE" transform="translate(4,30)"/>
</svg>
